<?xml version="1.0" standalone="no"?>
<!DOCTYPE svg PUBLIC "-//W3C//DTD SVG 20010904//EN"
 "http://www.w3.org/TR/2001/REC-SVG-20010904/DTD/svg10.dtd">
<svg version="1.0" xmlns="http://www.w3.org/2000/svg"
 width="1200.000000pt" height="900.000000pt" viewBox="0 0 1200.000000 900.000000"
 preserveAspectRatio="xMidYMid meet">
<metadata>
Created by potrace 1.16, written by Peter Selinger 2001-2019
</metadata>
<g transform="translate(0.000000,900.000000) scale(0.100000,-0.100000)"
fill="#000000" stroke="none">
<path d="M3523 6890 c-192 -50 -310 -160 -369 -344 -35 -109 -44 -307 -20
-446 47 -270 178 -519 387 -735 l106 -110 -19 -30 c-38 -59 -117 -232 -153
-335 -99 -288 -135 -612 -101 -930 24 -223 6 -202 144 -165 l117 31 71 -145
c171 -352 419 -642 777 -909 390 -292 921 -537 1436 -662 110 -27 123 -25 356
41 473 136 935 360 1284 622 358 269 609 565 779 915 l67 138 117 -31 117 -32
5 26 c35 184 42 543 13 726 -42 264 -138 541 -245 710 l-19 30 106 110 c210
217 339 464 387 735 24 139 15 337 -20 446 -78 243 -266 364 -565 364 -288 -1
-578 -131 -788 -353 l-52 -55 -98 100 c-225 230 -444 318 -715 288 -61 -7
-169 -31 -277 -62 -357 -102 -345 -102 -702 0 -108 31 -216 55 -277 62 -271
30 -490 -58 -715 -288 l-98 -100 -52 55 c-154 163 -369 286 -586 334 -116 25
-299 25 -398 -1z m1710 -1187 c45 -51 17 -123 -49 -123 -66 0 -97 69 -52 117
26 28 78 31 101 6z m1634 -5 c48 -45 16 -118 -51 -118 -26 0 -40 7 -56 27 -55
70 42 153 107 91z"/>
</g>
</svg>
